<svg xmlns="http://www.w3.org/2000/svg" viewBox="0 0 651.7 171"><path d="M233 84.3c-5.1-2.8-9.2-6.6-12.1-11.6-2.9-4.9-4.4-10.5-4.4-16.7s1.5-11.7 4.4-16.7c2.9-4.9 7-8.8 12.1-11.6s10.9-4.2 17.2-4.2c5.2 0 9.9.9 14.1 2.7 4.3 1.8 7.9 4.4 10.8 7.8l-7.6 7.1c-4.6-4.9-10.2-7.4-16.8-7.4-4.3 0-8.2.9-11.6 2.8-3.4 1.9-6.1 4.5-8 7.9s-2.9 7.2-2.9 11.4c0 4.3 1 8.1 2.9 11.4 1.9 3.4 4.6 6 8 7.9s7.3 2.8 11.6 2.8c6.7 0 12.3-2.5 16.8-7.5l7.6 7.2c-2.9 3.4-6.6 6-10.8 7.8-4.3 1.8-9 2.7-14.2 2.7-6.2.4-12-1-17.1-3.8zm100.8-6.5v9.8h-47.2v-63h46v9.8h-34.3v16.4h30.4v9.6h-30.4v17.4h35.5zm69-53.2v63h-9.6l-34.7-42.7v42.7h-11.6v-63h9.6l34.7 42.7V24.6h11.6zm29.7 9.9h-20.9v-9.9h53.5v9.9h-20.9v53.1h-11.7V34.5zm82.6 53.1l-12.9-18.5c-.5.1-1.3.1-2.4.1h-14.2v18.4h-11.7v-63h25.9c5.5 0 10.2.9 14.3 2.7 4.1 1.8 7.2 4.4 9.3 7.7 2.1 3.3 3.2 7.3 3.2 12s-1.2 8.8-3.5 12.2-5.6 6-9.9 7.6l14.5 20.7-12.6.1zm-4.2-49.9c-2.6-2.2-6.5-3.2-11.6-3.2h-13.7v25.1h13.7c5.1 0 9-1.1 11.6-3.3s4-5.3 4-9.3c-.1-4-1.4-7.1-4-9.3zM580.5 73H549l-6.2 14.6h-12.1l28.3-63h11.5l28.4 63h-12.2L580.5 73zm-3.8-9.2l-11.9-27.5L553 63.8h23.7zm30.4-39.2h11.7v53.1h32.9v9.9h-44.6v-63zM221.2 106h3.6v45.8H253v3.2h-31.8v-49zm68.9 0h3.6v49h-3.6v-49zm51.3 47.5c-3.2-1.2-5.8-2.8-7.6-4.8l1.6-2.7c1.7 1.8 4 3.3 7 4.4 2.9 1.1 6 1.7 9.2 1.7 4.7 0 8.2-.9 10.6-2.7s3.6-4.1 3.6-6.9c0-2.2-.6-3.9-1.9-5.2s-2.8-2.3-4.7-3c-1.9-.7-4.4-1.4-7.6-2.2-3.6-.9-6.5-1.8-8.6-2.6s-4-2.1-5.5-3.9-2.3-4.1-2.3-7c0-2.4.6-4.6 1.9-6.5 1.3-2 3.2-3.6 5.8-4.7 2.6-1.2 5.8-1.8 9.7-1.8 2.7 0 5.4.4 8 1.2 2.6.8 4.9 1.9 6.8 3.2l-1.3 2.9c-2-1.4-4.1-2.4-6.5-3.1s-4.7-1-7-1c-4.5 0-8 .9-10.3 2.7-2.3 1.8-3.5 4.2-3.5 7.1 0 2.2.6 3.9 1.9 5.2 1.3 1.3 2.8 2.3 4.7 3 1.9.7 4.4 1.4 7.6 2.2 3.6.9 6.5 1.8 8.6 2.6s4 2.1 5.5 3.8 2.3 4 2.3 6.9c0 2.4-.6 4.5-1.9 6.5s-3.3 3.5-5.9 4.7c-2.7 1.2-5.9 1.8-9.8 1.8-3.7.1-7.2-.5-10.4-1.8zm76.7-44.3h-17.6V106h38.9v3.2h-17.6V155h-3.6l-.1-45.8zm58-3.2h3.6v49h-3.6v-49zm88.6 0v49h-2.9l-33.4-42.6V155h-3.6v-49h3l33.3 42.6V106h3.6zm80 24.7h3.4V149c-2.1 2.1-4.8 3.6-7.8 4.7-3.1 1.1-6.3 1.6-9.7 1.6-4.9 0-9.2-1.1-13.1-3.2-3.9-2.1-7-5.1-9.2-8.9-2.2-3.8-3.3-8-3.3-12.7 0-4.7 1.1-9 3.3-12.7 2.2-3.8 5.3-6.7 9.2-8.9 3.9-2.1 8.3-3.2 13.2-3.2 3.6 0 6.9.6 9.9 1.7s5.6 2.8 7.7 5l-2.2 2.4c-2.1-2.1-4.4-3.5-6.9-4.4s-5.4-1.4-8.4-1.4c-4.2 0-8 .9-11.4 2.8s-6 4.4-7.9 7.7c-1.9 3.3-2.9 7-2.9 11s1 7.7 2.9 11 4.6 5.9 7.9 7.8c3.4 1.9 7.1 2.8 11.3 2.8 5.6 0 10.2-1.5 13.9-4.5l.1-16.9zM147.3 0H23.7C10.6 0 0 10.6 0 23.7v123.6C0 160.4 10.6 171 23.7 171h123.6c13.1 0 23.7-10.6 23.7-23.7V23.7C171 10.6 160.4 0 147.3 0zM58.8 26.7c6-2.8 14-3.3 20.4-3.1 32.1 1.4 59.2 28.7 53.7 61.8-3.2 16.2-14.1 29.6-30.3 33.9-8.6 2-17.4 1.2-25.2-3.2-8.3-4.9-17-16.8-11.9-26.8 2.6-4.9 3.6.6 4.1 3C73.7 110 92 116.5 108 108.9c16.7-8.9 22.6-28.1 18-45.8-8.3-28.2-36.6-40.4-63.9-36.5-.2 0-5 .9-3.3.1zm-32.2 85.6c-2.8-6-3.3-14-3.1-20.4 1.4-32.1 28.7-59.2 61.8-53.7 16.2 3.2 29.6 14.1 33.9 30.4 2 8.6 1.2 17.4-3.2 25.2-4.9 8.3-16.8 17-26.8 11.9-4.9-2.6.6-3.6 3-4.1 17.7-4.1 24.2-22.4 16.6-38.4-8.9-16.7-28.1-22.6-45.8-18-28.2 8.3-40.4 36.6-36.5 63.9 0 .1.9 4.9.1 3.2zm84.8 32.5c-6.1 2.3-13.2 3-19.7 2.8-32.1-1.4-59.2-28.7-53.7-61.8 4.3-21.3 23.2-38.4 45.7-34.4 12.4 2.6 26.7 14.7 22.5 28.8-.5 1.5-2.8 5.9-4 2.3-1-3-1.3-6.1-2.6-9.1-7.3-15.8-26.4-17.7-40.1-9-17.1 12-19.9 34.2-11.4 52.2 11.5 22 35.3 31.2 59.1 28.2.4 0 7.6-1.3 4.2 0zm36.1-65.4c-1.4 32.1-28.7 59.2-61.8 53.7-21.3-4.3-38.4-23.2-34.4-45.7C53.9 75 66 60.7 80.1 64.9c1.5.5 5.9 2.8 2.3 4-3 1-6.1 1.3-9.1 2.6-15.8 7.3-17.8 26.4-9 40.1 12 17.1 34.2 20 52.2 11.4 22-11.5 31.2-35.3 28.2-59.1 0-.4-1.3-7.6 0-4.2 2.3 6.1 3 13.2 2.8 19.7z" fill="#fff"/></svg>