<?xml version="1.0" encoding="utf-8"?>
<!-- Generator: Adobe Illustrator 22.1.0, SVG Export Plug-In . SVG Version: 6.00 Build 0)  -->
<svg version="1.1" id="icons" xmlns="http://www.w3.org/2000/svg" xmlns:xlink="http://www.w3.org/1999/xlink" x="0px" y="0px"
	 viewBox="0 0 57 58" style="enable-background:new 0 0 57 58;" xml:space="preserve">
<style type="text/css">
	.st0{fill:#E9EAEB;}
	.st1{fill:#FFFFFF;}
	.st2{fill:#7B7B7B;}
	.st3{fill:#363B42;}
	.st4{fill:#3A3A3A;}
	.st5{fill:#62D4D6;}
</style>
<g>
	<g>
		<circle class="st0" cx="22.5" cy="22.5" r="22.5"/>
	</g>
	<g>
		<path class="st1" d="M24,12h24l8,8v35c0,1.1-0.9,2-2,2H24c-1.1,0-2-0.9-2-2V14C22,12.9,22.9,12,24,12z"/>
		<path class="st2" d="M54,57.5H24c-1.4,0-2.5-1.1-2.5-2.5V14c0-1.4,1.1-2.5,2.5-2.5h24.2l8.3,8.3V55C56.5,56.4,55.4,57.5,54,57.5z
			 M24,12.5c-0.8,0-1.5,0.7-1.5,1.5v41c0,0.8,0.7,1.5,1.5,1.5h30c0.8,0,1.5-0.7,1.5-1.5V20.2l-7.7-7.7H24z"/>
	</g>
	<g>
		<polygon class="st1" points="47,12 47,21 56,21 		"/>
	</g>
	<g>
		<path class="st3" d="M54,58H24c-1.7,0-3-1.3-3-3V14c0-1.7,1.3-3,3-3h24.4l8.6,8.6V55C57,56.7,55.7,58,54,58z M24,13
			c-0.6,0-1,0.4-1,1v41c0,0.6,0.4,1,1,1h30c0.6,0,1-0.4,1-1V20.4L47.6,13H24z"/>
	</g>
	<g>
		<g>
			<polygon class="st4" points="53,22 46,22 46,15 48,15 48,20 53,20 			"/>
		</g>
	</g>
	<g>
		<g>
			<path class="st4" d="M6.8,22.2l-1.6-1.6c-1.2-1.2-1.2-3.1,0-4.2l0.2-0.2c1.1-1.1,3.1-1.1,4.2,0l1.6,1.6l-1.4,1.4l-1.6-1.6
				c-0.4-0.4-1-0.4-1.4,0l-0.2,0.2c-0.4,0.4-0.4,1,0,1.4l1.6,1.6L6.8,22.2z"/>
		</g>
		<g>
			<polygon class="st5" points="7,22 33,48 41,52 37,44 11,18 			"/>
			<path class="st4" d="M41,53c-0.2,0-0.3,0-0.4-0.1l-8-4c-0.1,0-0.2-0.1-0.3-0.2l-26-26c-0.4-0.4-0.4-1,0-1.4l4-4
				c0.4-0.4,1-0.4,1.4,0l26,26c0.1,0.1,0.1,0.2,0.2,0.3l4,8c0.2,0.4,0.1,0.8-0.2,1.2C41.5,52.9,41.3,53,41,53z M33.6,47.2l5.2,2.6
				l-2.6-5.2L11,19.4L8.4,22L33.6,47.2z"/>
		</g>
		<g>
			<line class="st1" x1="37" y1="44" x2="33" y2="48"/>
			<rect x="32.2" y="45" transform="matrix(0.7071 -0.7071 0.7071 0.7071 -22.2757 38.2218)" class="st3" width="5.7" height="2"/>
		</g>
		<g>
			<rect x="5.6" y="23.5" transform="matrix(0.7071 -0.7071 0.7071 0.7071 -14.2487 14.6005)" class="st4" width="9.9" height="2"/>
		</g>
		<g>
			<rect x="8" y="22.9" transform="matrix(0.7071 -0.7071 0.7071 0.7071 -18.5772 15.1508)" class="st4" width="2" height="14.1"/>
		</g>
	</g>
</g>
</svg>
