<?xml version="1.0" encoding="utf-8"?>
<!-- Generator: Adobe Illustrator 22.1.0, SVG Export Plug-In . SVG Version: 6.00 Build 0)  -->
<svg version="1.1" id="Warstwa_1" xmlns="http://www.w3.org/2000/svg" xmlns:xlink="http://www.w3.org/1999/xlink" x="0px" y="0px"
	 viewBox="0 0 62.5 54.6" style="enable-background:new 0 0 62.5 54.6;" xml:space="preserve">
<style type="text/css">
	.st0{fill:#FFFFFF;stroke:#2A5082;stroke-width:2;stroke-linejoin:round;stroke-miterlimit:10;}
	.st1{fill:none;stroke:#2A5082;stroke-width:2;stroke-linejoin:round;stroke-miterlimit:10;}
	.st2{fill:#E9EAEB;}
	.st3{fill:none;stroke:#363B42;stroke-width:2;stroke-miterlimit:10;}
</style>
<g>
	<g>
		<path class="st0" d="M30.5,46.5"/>
		<path class="st0" d="M34.5,42.5"/>
		<path class="st1" d="M4.5,26.5"/>
		<path class="st1" d="M11.5,19.5"/>
		<path class="st1" d="M11.5,33.5"/>
		<path class="st1" d="M1.5,23.5"/>
	</g>
</g>
<g>
	<path class="st2" d="M22,0C9.8,0,0,9.8,0,22c0,5,1.7,9.6,4.5,13.3V24.5L39,8C34.9,3.1,28.8,0,22,0z"/>
	<polygon class="st3" points="38.5,8.5 61.5,19.5 61.5,20.5 29.5,38.5 4.5,25.5 4.5,24.5 38.5,8.5 	"/>
	<polyline class="st3" points="4.5,28.5 4.5,30.5 29.5,43.5 61.5,25.5 61.5,23.5 	"/>
	<polyline class="st3" points="4.5,33.5 4.5,35.5 29.5,48.5 61.5,30.5 61.5,28.5 	"/>
	<polyline class="st3" points="4.5,38.5 4.5,40.5 29.5,53.5 61.5,35.5 61.5,33.5 	"/>
</g>
</svg>
