<?xml version="1.0" encoding="utf-8"?>
<!-- Generator: Adobe Illustrator 22.1.0, SVG Export Plug-In . SVG Version: 6.00 Build 0)  -->
<svg version="1.1" id="icons" xmlns="http://www.w3.org/2000/svg" xmlns:xlink="http://www.w3.org/1999/xlink" x="0px" y="0px"
	 viewBox="0 0 63.5 56.1" style="enable-background:new 0 0 63.5 56.1;" xml:space="preserve">
<style type="text/css">
	.st0{fill:#E9EAEB;}
	.st1{fill:#FFFFFF;}
	.st2{fill:#3A3A3A;}
	.st3{fill:#363B42;}
	.st4{fill:#2A5082;}
	.st5{fill:#62D4D6;}
</style>
<g>
	<g>
		<circle class="st0" cx="33.3" cy="27.5" r="27.5"/>
	</g>
	<g>
		<path class="st1" d="M16.8,2c-5.5,0-10,2.2-10,5v0v25l20-11V7C26.8,4.2,22.3,2,16.8,2z"/>
	</g>
	<g>
		<path class="st2" d="M16.8,13c-6.2,0-11-2.6-11-6s4.8-6,11-6s11,2.6,11,6S22.9,13,16.8,13z M16.8,3c-5.3,0-9,2.1-9,4s3.7,4,9,4
			s9-2.1,9-4S22.1,3,16.8,3z"/>
	</g>
	<g>
		<path class="st2" d="M16.8,18c-6.2,0-11-2.6-11-6V7h2v5c0,1.9,3.7,4,9,4s9-2.1,9-4V7h2v5C27.8,15.4,22.9,18,16.8,18z"/>
	</g>
	<g>
		<path class="st3" d="M26.8,18c-0.6,0-1-0.4-1-1v-5c0-0.6,0.4-1,1-1s1,0.4,1,1v5C27.8,17.6,27.3,18,26.8,18z"/>
	</g>
	<g>
		<path class="st2" d="M13.8,22.8c-0.1,0-0.1,0-0.2,0c-4.8-0.7-7.8-3-7.8-5.8v-5c0-0.6,0.4-1,1-1s1,0.4,1,1v5c0,1.6,2.6,3.2,6.2,3.8
			c0.5,0.1,0.9,0.6,0.8,1.1C14.7,22.4,14.2,22.8,13.8,22.8z"/>
	</g>
	<g>
		<path class="st2" d="M9.8,26.6c-0.1,0-0.3,0-0.4-0.1C7,25.3,5.8,23.8,5.8,22v-5c0-0.6,0.4-1,1-1s1,0.4,1,1v5
			c0,0.9,0.9,1.9,2.4,2.7c0.5,0.2,0.7,0.8,0.5,1.3C10.5,26.4,10.1,26.6,9.8,26.6z"/>
	</g>
	<g>
		<path class="st3" d="M6.8,29c-0.6,0-1-0.4-1-1V17c0-0.6,0.4-1,1-1s1,0.4,1,1v11C7.8,28.6,7.3,29,6.8,29z"/>
	</g>
	<g>
		<polygon class="st0" points="62.5,24.1 22.2,45.3 1,34.1 41.3,13 		"/>
		<path class="st3" d="M22.2,46.3c-0.2,0-0.3,0-0.5-0.1L0.5,35C0.2,34.9,0,34.5,0,34.1s0.2-0.7,0.5-0.9l40.3-21.1
			c0.3-0.2,0.6-0.2,0.9,0L63,23.2c0.3,0.2,0.5,0.5,0.5,0.9S63.3,24.8,63,25L22.7,46.2C22.5,46.2,22.4,46.3,22.2,46.3z M3.2,34.1
			l19.1,10l38.2-20l-19.1-10L3.2,34.1z"/>
	</g>
	<g>
		<path class="st3" d="M22.2,51.2c-0.2,0-0.3,0-0.5-0.1L0.5,39.9c-0.5-0.3-0.7-0.9-0.4-1.4c0.3-0.5,0.9-0.7,1.4-0.4L22.2,49
			l39.8-20.9c0.5-0.3,1.1-0.1,1.4,0.4c0.3,0.5,0.1,1.1-0.4,1.4L22.7,51.1C22.5,51.1,22.4,51.2,22.2,51.2z"/>
	</g>
	<g>
		<path class="st3" d="M22.2,56.1c-0.2,0-0.3,0-0.5-0.1L0.5,44.8C0,44.6-0.1,44,0.1,43.5C0.4,43,1,42.8,1.5,43.1L22.2,54l39.8-20.9
			c0.5-0.3,1.1-0.1,1.4,0.4c0.3,0.5,0.1,1.1-0.4,1.4L22.7,56C22.5,56.1,22.4,56.1,22.2,56.1z"/>
	</g>
	<g>
		<path class="st1" d="M51.2,23.4l-8.5-4.5c-1.4,0.7-3.1,0.6-4.2,0L12.3,32.7c1.4,0.7,1.2,1.6,0,2.2l8.5,4.5c1.2-0.6,2.8-0.7,4.2,0
			l26.2-13.7C50,25,49.8,24.1,51.2,23.4z"/>
		<path class="st3" d="M25,40.5l-0.5-0.2c-1-0.5-2.3-0.5-3.3,0l-0.5,0.2l-10.6-5.6l1.7-0.9c0.2-0.1,0.3-0.2,0.3-0.2
			c-0.1-0.1-0.2-0.1-0.4-0.2l-1.7-0.9l28.3-14.9l0.5,0.2c0.8,0.4,2.1,0.6,3.3,0l0.5-0.2l10.6,5.6l-1.7,0.9c-0.2,0.1-0.3,0.2-0.4,0.2
			c0.1,0.1,0.2,0.1,0.4,0.2l1.7,0.9L25,40.5z M22.9,37.8c0.7,0,1.4,0.1,2.1,0.4l24.5-12.8c-0.2-0.3-0.2-0.6-0.2-0.9
			c0-0.3,0.1-0.6,0.2-0.9L42.7,20c-1.3,0.5-2.9,0.5-4.2,0L14,32.9c0.2,0.3,0.2,0.6,0.2,0.9s-0.1,0.6-0.2,0.9l6.8,3.6
			C21.5,38,22.2,37.8,22.9,37.8z M12.3,33.9L12.3,33.9L12.3,33.9z"/>
	</g>
	<g>
		<rect x="40.8" y="23" class="st3" width="2" height="2"/>
	</g>
	<g>
		<rect x="20.8" y="33" class="st3" width="2" height="2"/>
	</g>
	<g>
		<path class="st1" d="M35.6,27.1c2.3,1.2,2.5,3.1,0.3,4.3c-2.1,1.1-5.8,1-8.1-0.2c-2.3-1.2-2.5-3.1-0.3-4.3
			C29.6,25.8,33.3,25.9,35.6,27.1z"/>
		<path class="st4" d="M32.2,33.2c-1.7,0-3.5-0.4-4.9-1.1c-1.5-0.8-2.4-1.9-2.4-3.2c0-0.7,0.3-1.9,2.1-2.8c2.4-1.3,6.4-1.2,9.1,0.2
			v0c1.5,0.8,2.4,1.9,2.4,3.2c0,0.7-0.3,1.9-2.1,2.8C35.3,32.9,33.8,33.2,32.2,33.2z M31.2,27.1c-1.2,0-2.4,0.2-3.3,0.7
			c-0.6,0.3-1,0.7-1,1.1c0,0.3,0.3,0.9,1.3,1.4c2,1.1,5.3,1.2,7.2,0.2c0.6-0.3,1-0.7,1-1.1c0-0.3-0.3-0.9-1.3-1.4v0
			C34.1,27.4,32.6,27.1,31.2,27.1z"/>
	</g>
	<g>
		<polygon class="st5" points="36.8,37.4 14.8,25 24.8,20 47.8,32 47.8,44.1 36.8,50 		"/>
		<path class="st3" d="M36.8,51c-0.2,0-0.4,0-0.5-0.1c-0.3-0.2-0.5-0.5-0.5-0.9V38L14.3,25.9c-0.3-0.2-0.5-0.5-0.5-0.9
			c0-0.4,0.2-0.7,0.6-0.9l10-5c0.3-0.1,0.6-0.1,0.9,0l23,12c0.3,0.2,0.5,0.5,0.5,0.9v12.1c0,0.4-0.2,0.7-0.5,0.9l-11,5.9
			C37.1,51,36.9,51,36.8,51z M16.9,25.1l20.4,11.5c0.3,0.2,0.5,0.5,0.5,0.9v10.9l9-4.8V32.6l-22-11.5L16.9,25.1z"/>
	</g>
</g>
</svg>
