<?xml version="1.0" encoding="utf-8"?>
<!-- Generator: Adobe Illustrator 22.1.0, SVG Export Plug-In . SVG Version: 6.00 Build 0)  -->
<svg version="1.1" id="icons" xmlns="http://www.w3.org/2000/svg" xmlns:xlink="http://www.w3.org/1999/xlink" x="0px" y="0px"
	 viewBox="0 0 62.1 54.6" style="enable-background:new 0 0 62.1 54.6;" xml:space="preserve">
<style type="text/css">
	.st0{fill:#BCC0C4;}
	.st1{fill:#E9EAEB;}
	.st2{fill:#FFFFFF;}
	.st3{fill:#363A42;}
	.st4{fill:#60D2D4;}
</style>
<g>
	<g>
		<path class="st0" d="M4.3,37.8c-5.4-9-5.7-20.3-0.7-29.6l1.8,1C0.7,17.8,0.9,28.4,6,36.8L4.3,37.8z"/>
	</g>
	<g>
		<circle class="st1" cx="30.2" cy="22.6" r="21"/>
	</g>
	<g>
		<path class="st0" d="M56.5,40.5l-1.6-1.2c4.3-5.8,6-12.9,5-20S55,5.9,49.2,1.6L50.4,0c6.2,4.6,10.3,11.3,11.4,19
			C63,26.6,61.1,34.2,56.5,40.5z"/>
	</g>
	<g>
		<rect x="17.2" y="13.6" class="st2" width="6" height="11"/>
		<path class="st3" d="M24.2,25.6h-8v-13h8V25.6z M18.2,23.6h4v-9h-4V23.6z"/>
	</g>
	<g>
		<path class="st2" d="M49.2,53.6h-34V32.3c6-6.8,9.6-10.7,16.4-17.7h0.2c6.8,7,10.5,10.9,17.5,17.7V53.6z"/>
		<path class="st3" d="M50.2,54.6h-36V31.9l0.3-0.3C20.4,25,24,21,30.9,13.9l0.3-0.3h1l3,3.1c5.1,5.3,8.7,9.1,14.7,14.8l0.3,0.3
			V54.6z M16.2,52.6h32V32.7c-5.8-5.6-9.5-9.4-14.5-14.6L31.7,16c-6.4,6.6-9.9,10.5-15.4,16.7V52.6z"/>
	</g>
	<g>
		<polygon class="st4" points="32.2,11.6 11.2,32.6 14.2,35.6 32.2,17.6 50.2,35.6 53.2,32.6 		"/>
		<path class="st3" d="M50.2,37l-18-18l-18,18l-4.4-4.4l22.4-22.4l22.4,22.4L50.2,37z M32.2,16.2l18,18l1.6-1.6L32.2,13L12.7,32.6
			l1.6,1.6L32.2,16.2z"/>
	</g>
	<g>
		<rect x="9.2" y="52.6" class="st3" width="46" height="2"/>
	</g>
	<g>
		<rect x="5.2" y="52.6" class="st3" width="2" height="2"/>
	</g>
	<g>
		<rect x="1.2" y="52.6" class="st3" width="2" height="2"/>
	</g>
	<g>
		<rect x="57.2" y="52.6" class="st3" width="4" height="2"/>
	</g>
</g>
</svg>
