<?xml version="1.0" encoding="utf-8"?>
<!-- Generator: Adobe Illustrator 22.1.0, SVG Export Plug-In . SVG Version: 6.00 Build 0)  -->
<svg version="1.1" id="Warstwa_1" xmlns="http://www.w3.org/2000/svg" xmlns:xlink="http://www.w3.org/1999/xlink" x="0px" y="0px"
	 viewBox="0 0 76 76" style="enable-background:new 0 0 76 76;" xml:space="preserve">
<style type="text/css">
	.st0{fill:#D5D5D5;}
</style>
<g>
	<g>
		<path class="st0" d="M38,0C17,0,0,17,0,38c0,21,17,38,38,38c21,0,38-17,38-38C76,17,59,0,38,0z M47.3,21.7c2.4,0,4.4,2,4.4,4.5
			c0,2.5-2,4.5-4.4,4.5c-2.4,0-4.4-2-4.4-4.5C43,23.7,44.9,21.7,47.3,21.7z M19.4,48.1l13.5-22l7,11l5.4-3.5l9.3,14.5H19.4z"/>
	</g>
</g>
</svg>
