<?xml version="1.0" encoding="utf-8"?>
<!-- Generator: Adobe Illustrator 22.1.0, SVG Export Plug-In . SVG Version: 6.00 Build 0)  -->
<svg version="1.1" id="icons" xmlns="http://www.w3.org/2000/svg" xmlns:xlink="http://www.w3.org/1999/xlink" x="0px" y="0px"
	 viewBox="0 0 64 58.4" style="enable-background:new 0 0 64 58.4;" xml:space="preserve">
<style type="text/css">
	.st0{fill:#363B42;}
	.st1{fill:#E9EAEB;}
	.st2{fill:#62D4D6;}
	.st3{fill:#FFFFFF;}
	.st4{fill:#BCC0C4;}
</style>
<g>
	<g>
		<path class="st0" d="M44,58.4H16v-41h28V58.4z M18,56.4h24v-37H18V56.4z"/>
	</g>
	<g>
		<rect x="20" y="13.4" class="st1" width="20" height="5"/>
		<path class="st0" d="M41,19.4H19v-7h22V19.4z M21,17.4h18v-3H21V17.4z"/>
	</g>
	<g>
		<rect x="28" y="49.4" class="st1" width="6" height="8"/>
		<path class="st0" d="M35,58.4h-8v-10h8V58.4z M29,56.4h4v-6h-4V56.4z"/>
	</g>
	<g>
		<polygon class="st0" points="28,32.4 26,32.4 26,28.4 23,28.4 23,32.4 21,32.4 21,26.4 28,26.4 		"/>
	</g>
	<g>
		<polygon class="st0" points="28,40.4 26,40.4 26,36.4 23,36.4 23,40.4 21,40.4 21,34.4 28,34.4 		"/>
	</g>
	<g>
		<path class="st0" d="M18,58.4H6v-27h12V58.4z M8,56.4h8v-23H8V56.4z"/>
	</g>
	<g>
		<rect x="10" y="27.4" class="st1" width="7" height="5"/>
		<path class="st0" d="M18,33.4H9v-7h9V33.4z M11,31.4h5v-3h-5V31.4z"/>
	</g>
	<g>
		<path class="st2" d="M43.1,25.4c-6,0-10.9,4.9-10.9,10.9c0,9.4,9.3,10.7,10.1,20.3c0,0.4,0.4,0.8,0.8,0.8c0.4,0,0.8-0.3,0.8-0.8
			C44.7,47.1,54,45.8,54,36.3C54,30.3,49.1,25.4,43.1,25.4z"/>
		<path class="st0" d="M43.1,58.4c-1,0-1.7-0.7-1.8-1.7c-0.4-4.4-2.6-6.8-4.9-9.5c-2.5-2.8-5.2-5.7-5.2-10.9
			c0-6.6,5.4-11.9,11.9-11.9S55,29.8,55,36.3c0,5.2-2.6,8.1-5.2,10.9c-2.4,2.6-4.6,5.1-4.9,9.5C44.8,57.7,44,58.4,43.1,58.4z
			 M43.1,26.4c-5.5,0-9.9,4.5-9.9,9.9c0,4.4,2.3,6.9,4.6,9.6c2.2,2.5,4.6,5.1,5.3,9.3c0.7-4.2,3-6.8,5.3-9.3
			c2.4-2.7,4.6-5.2,4.6-9.6C53,30.9,48.5,26.4,43.1,26.4z"/>
	</g>
	<g>
		<circle class="st3" cx="43" cy="36.4" r="4"/>
		<path class="st0" d="M43,41.4c-2.8,0-5-2.2-5-5s2.2-5,5-5s5,2.2,5,5S45.8,41.4,43,41.4z M43,33.4c-1.7,0-3,1.3-3,3s1.3,3,3,3
			s3-1.3,3-3S44.7,33.4,43,33.4z"/>
	</g>
	<g>
		<rect x="4" y="56.4" class="st0" width="50" height="2"/>
	</g>
	<g>
		<path class="st4" d="M36,7.4h-7.5l-0.3-0.5c-0.4-0.7-1.3-1.5-2.2-1.5c-0.3,0-0.6,0.1-0.9,0.2L24.1,6l-0.4-1c-0.7-1.8-2.4-3-4.2-3
			c-2.5,0-4.5,2.9-4.5,4.4l0,1H6v-2h7.2C13.8,3,16.4,0,19.6,0c2.4,0,4.6,1.4,5.7,3.5c1.9-0.3,3.5,0.7,4.4,2H36V7.4z"/>
	</g>
	<g>
		<rect x="4" y="13.4" class="st4" width="7" height="2"/>
	</g>
	<g>
		<path class="st4" d="M64,12.4h-3.7l-0.2-0.7c-0.5-1.3-1.3-1.8-2.8-1.6l-0.7,0.1l-0.3-0.6c-0.6-1-1.7-1.6-2.9-1.6
			c-1.2,0-3.3,0.4-3.3,3.4l0,1H45v-2h3.2C48.6,7.7,50.6,6,53.4,6c1.7,0,3.3,0.8,4.2,2c2.2-0.1,3.4,1.1,4,2.3H64V12.4z"/>
	</g>
	<g>
		<rect x="13" y="13.4" class="st4" width="2" height="2"/>
	</g>
	<g>
		<rect x="38" y="5.4" class="st4" width="2" height="2"/>
	</g>
	<g>
		<rect x="42" y="5.4" class="st4" width="2" height="2"/>
	</g>
	<g>
		<rect y="56.4" class="st0" width="2" height="2"/>
	</g>
	<g>
		<rect x="56" y="56.4" class="st0" width="4" height="2"/>
	</g>
	<g>
		<rect x="62" y="56.4" class="st0" width="2" height="2"/>
	</g>
</g>
</svg>
