<?xml version="1.0" encoding="utf-8"?>
<!-- Generator: Adobe Illustrator 22.1.0, SVG Export Plug-In . SVG Version: 6.00 Build 0)  -->
<svg version="1.1" id="icons" xmlns="http://www.w3.org/2000/svg" xmlns:xlink="http://www.w3.org/1999/xlink" x="0px" y="0px"
	 viewBox="0 0 60 62.3" style="enable-background:new 0 0 60 62.3;" xml:space="preserve">
<style type="text/css">
	.st0{fill:#E9EAEB;}
	.st1{fill:#FFFFFF;}
	.st2{fill:#3A3A3A;}
	.st3{fill:#363B42;}
	.st4{fill:#BCC0C4;}
	.st5{fill:#62D4D6;}
</style>
<g>
	<g>
		<circle class="st0" cx="24" cy="24.3" r="24"/>
	</g>
	<g>
		<rect x="17" y="21.3" class="st1" width="42" height="32"/>
	</g>
	<g>
		<rect x="7" y="30.3" class="st1" width="28" height="31"/>
	</g>
	<g>
		<polygon class="st2" points="36,62.3 6,62.3 6,29.3 14,29.3 14,31.3 8,31.3 8,60.3 34,60.3 34,56.3 36,56.3 		"/>
	</g>
	<g>
		<polygon class="st3" points="36,61.3 33.7,61.3 16,56.1 16,53.3 18,53.3 18,54.6 34,59.3 34,56.3 36,56.3 		"/>
	</g>
	<g>
		<polygon class="st4" points="53.5,54.2 43.6,44.3 29.6,44.3 23.6,38.3 29,32.9 31.4,35.3 46.4,35.3 59.7,48.6 58.3,50 45.6,37.3 
			30.6,37.3 29,35.8 26.4,38.3 30.4,42.3 44.4,42.3 54.9,52.8 		"/>
	</g>
	<g>
		<polygon class="st4" points="46.3,54 41.6,49.3 27.6,49.3 17.3,39 18.7,37.6 28.4,47.3 42.4,47.3 47.7,52.6 		"/>
	</g>
	<g>
		<polygon class="st4" points="21,35.8 17.3,32 18.7,30.6 21,32.9 23.6,30.3 17.3,24 18.7,22.6 26.4,30.3 		"/>
	</g>
	<g>
		<polygon class="st4" points="58.3,43 47.6,32.3 32.6,32.3 22.3,22 23.7,20.6 33.4,30.3 48.4,30.3 59.7,41.6 		"/>
	</g>
	<g>
		<rect x="53" y="19.3" transform="matrix(0.7071 -0.7071 0.7071 0.7071 -2.8095 45.8988)" class="st4" width="2" height="14.1"/>
	</g>
	<g>
		<path class="st3" d="M60,54.3H16v-34h44V54.3z M18,52.3h40v-30H18V52.3z"/>
	</g>
	<g>
		<path class="st5" d="M43.8,1c-7.4,0-13.3,6-13.3,13.3c0,11.5,11.4,13.1,12.3,24.7c0,0.5,0.5,1,1,1c0.5,0,1-0.4,1-1
			c1-11.7,12.3-13.2,12.3-24.7C57.1,7,51.2,1,43.8,1z"/>
		<path class="st3" d="M43.8,41c-1.1,0-1.9-0.8-2-1.9c-0.4-5.4-3.2-8.4-6.1-11.7c-3.1-3.4-6.2-6.9-6.2-13.2C29.5,6.4,35.9,0,43.8,0
			c7.9,0,14.3,6.4,14.3,14.3c0,6.2-3.2,9.8-6.2,13.2c-2.9,3.2-5.6,6.3-6.1,11.7C45.7,40.2,44.9,41,43.8,41z M43.8,2
			C37,2,31.5,7.5,31.5,14.3c0,5.5,2.8,8.6,5.7,11.8c3,3.3,6.1,6.8,6.6,12.8c0.5-6.1,3.6-9.5,6.6-12.8c2.9-3.3,5.7-6.3,5.7-11.8
			C56.1,7.5,50.6,2,43.8,2z"/>
	</g>
	<g>
		<path class="st1" d="M48.1,14.3c0,2.4-1.9,4.3-4.3,4.3s-4.3-1.9-4.3-4.3s1.9-4.3,4.3-4.3S48.1,12,48.1,14.3z"/>
		<path class="st3" d="M43.8,19.6c-2.9,0-5.3-2.4-5.3-5.3S40.9,9,43.8,9s5.3,2.4,5.3,5.3S46.7,19.6,43.8,19.6z M43.8,11
			c-1.8,0-3.3,1.5-3.3,3.3c0,1.8,1.5,3.3,3.3,3.3c1.8,0,3.3-1.5,3.3-3.3C47.1,12.5,45.6,11,43.8,11z"/>
	</g>
</g>
</svg>
