<?xml version="1.0" encoding="utf-8"?>
<!-- Generator: Adobe Illustrator 22.1.0, SVG Export Plug-In . SVG Version: 6.00 Build 0)  -->
<svg version="1.1" id="icons" xmlns="http://www.w3.org/2000/svg" xmlns:xlink="http://www.w3.org/1999/xlink" x="0px" y="0px"
	 viewBox="0 0 15.6 16" style="enable-background:new 0 0 15.6 16;" xml:space="preserve">
<g>
	<path d="M2.2,11.4c-1.2,0-2.2,1-2.2,2.3S1,16,2.2,16c1.2,0,2.2-1,2.2-2.3S3.5,11.4,2.2,11.4z M0,5.7v2.7c2,0,3.9,0.7,5.3,2.1
		C6.7,11.9,7.4,14,7.4,16H10C10,10.2,5.7,5.7,0,5.7z M0,0v3.1c7,0,12.6,5.8,12.6,12.9h3C15.6,7.2,8.6,0,0,0z"/>
</g>
</svg>
