<?xml version="1.0" encoding="utf-8"?>
<!-- Generator: Adobe Illustrator 22.1.0, SVG Export Plug-In . SVG Version: 6.00 Build 0)  -->
<svg version="1.1" id="Warstwa_1" xmlns="http://www.w3.org/2000/svg" xmlns:xlink="http://www.w3.org/1999/xlink" x="0px" y="0px"
	 viewBox="0 0 170 161.5" style="enable-background:new 0 0 170 161.5;" xml:space="preserve">
<style type="text/css">
	.st0{fill-rule:evenodd;clip-rule:evenodd;}
</style>
<path class="st0" d="M162.9,58.3l-53.7-2.6L90.1,5.6c-2.8-7.5-7.4-7.5-10.3,0L60.8,55.7L7.1,58.3c-8,0.4-9.4,4.7-3.2,9.7l41.9,33.6
	c0,0-8.9,32.5-14.1,51.7c-2.1,7.7,1.6,10.4,8.3,6c16.8-11,45-29.4,45-29.4l45,29.4c6.7,4.4,10.4,1.7,8.3-6l-14.1-51.7l41.9-33.6
	C172.4,63.1,170.9,58.7,162.9,58.3"/>
</svg>
