<?xml version="1.0" encoding="utf-8"?>
<!-- Generator: Adobe Illustrator 22.1.0, SVG Export Plug-In . SVG Version: 6.00 Build 0)  -->
<svg version="1.1" id="icons" xmlns="http://www.w3.org/2000/svg" xmlns:xlink="http://www.w3.org/1999/xlink" x="0px" y="0px"
	 viewBox="0 0 49 62" style="enable-background:new 0 0 49 62;" xml:space="preserve">
<style type="text/css">
	.st0{fill:#E9EAEB;}
	.st1{fill:#61D3D5;}
	.st2{fill:#363A42;}
	.st3{fill:#FFFFFF;}
</style>
<g>
	<g>
		<circle class="st0" cx="24.5" cy="32.5" r="24.5"/>
	</g>
	<g>
		<path class="st1" d="M42,18v-2c0-7.2-7.6-13-17-13C15.6,3,8,8.8,8,16v2H6v5h19h19v-5H42z"/>
		<path class="st2" d="M45,24H5v-7h2v-1C7,8.3,15.1,2,25,2s18,6.3,18,14v1h2V24z M7,22h36v-3h-2v-3c0-6.6-7.2-12-16-12S9,9.4,9,16v3
			H7V22z"/>
	</g>
	<g>
		<rect x="14" y="43" class="st2" width="2" height="12"/>
	</g>
	<g>
		<rect x="34" y="43" class="st2" width="2" height="12"/>
	</g>
	<g>
		<path class="st3" d="M11,30v5.9c0,1.4,0.5,2.7,1.3,3.7l4.9,6.1c1.1,1.4,2.9,2.3,4.7,2.3h6.2c1.8,0,3.5-0.8,4.7-2.3l4.9-6.1
			c0.9-1.1,1.3-2.4,1.3-3.7V30c0-3.3-2.7-6-6-6H17C13.7,24,11,26.7,11,30z"/>
		<path class="st2" d="M28.1,49h-6.2c-2.1,0-4.1-1-5.5-2.6l-4.9-6.1c-1-1.2-1.5-2.8-1.5-4.4V30c0-3.9,3.1-7,7-7h16c3.9,0,7,3.1,7,7
			v5.9c0,1.6-0.5,3.1-1.5,4.4l-4.9,6.1C32.2,48,30.3,49,28.1,49z M17,25c-2.8,0-5,2.2-5,5v5.9c0,1.1,0.4,2.2,1.1,3.1l4.9,6.1
			c1,1.2,2.4,1.9,3.9,1.9h6.2c1.5,0,3-0.7,3.9-1.9l4.9-6.1c0.7-0.9,1.1-2,1.1-3.1V30c0-2.8-2.2-5-5-5H17z"/>
	</g>
	<g>
		<path class="st1" d="M9,21v3.1c0,2.7,6.6,4.9,16,4.9c9.4,0,16-2.2,16-4.9V21H9z"/>
	</g>
	<g>
		<path class="st2" d="M25,30c-8.5,0-17-1.8-17-5.9V21h2v3.1c0,1.6,5.3,3.9,15,3.9s15-2.3,15-3.9V21h2v3.1C42,28.2,33.5,30,25,30z"
			/>
	</g>
	<g>
		<path class="st2" d="M44,58h-2v-4c0-1.4-0.5-1.9-2.1-3l-4.5-3.2l1.2-1.6l4.5,3.2c1.6,1.1,2.9,2.1,2.9,4.6V58z"/>
	</g>
	<g>
		<polygon class="st2" points="28,62 26,62 26,59.4 38.5,52.1 39.5,53.9 28,60.6 		"/>
	</g>
	<g>
		<polygon class="st2" points="24,62 22,62 22,60.6 10.5,53.9 11.5,52.1 24,59.4 		"/>
	</g>
	<g>
		<path class="st2" d="M8,57H6v-3c0-2.5,1.4-3.5,2.9-4.6l4.5-3.2l1.2,1.6L10.1,51C8.5,52.1,8,52.6,8,54V57z"/>
	</g>
	<g>
		<polygon class="st1" points="29,3 29,1 21,1 21,3 17,3 17,10 21,10 21,14 29,14 29,10 33,10 33,3 		"/>
	</g>
	<g>
		<polygon class="st2" points="34,10 32,10 32,4 29,4 29,2 34,2 		"/>
	</g>
	<g>
		<polygon class="st2" points="18,10 16,10 16,2 21,2 21,4 18,4 		"/>
	</g>
	<g>
		<polygon class="st2" points="30,14 28,14 28,2 22,2 22,14 20,14 20,0 30,0 		"/>
	</g>
	<g>
		<path class="st2" d="M30.4,25H19.6c-2.6,0-5-0.8-7.2-2.2l1.1-1.7c1.8,1.2,3.9,1.8,6.1,1.8h10.8c2.2,0,4.3-0.6,6.1-1.8l1.1,1.7
			C35.4,24.2,33,25,30.4,25z"/>
	</g>
</g>
</svg>
