<?xml version="1.0" encoding="utf-8"?>
<!-- Generator: Adobe Illustrator 22.1.0, SVG Export Plug-In . SVG Version: 6.00 Build 0)  -->
<svg version="1.1" id="Warstwa_1" xmlns="http://www.w3.org/2000/svg" xmlns:xlink="http://www.w3.org/1999/xlink" x="0px" y="0px"
	 viewBox="0 0 23.8 23.7" style="enable-background:new 0 0 23.8 23.7;" xml:space="preserve">
<g>
	<path d="M21.9,1.5h-5.9C15.9,0.7,15.2,0,14.2,0H9.5C8.6,0,7.9,0.7,7.7,1.5H1.8C0.8,1.5,0,2.3,0,3.2V5h23.8c0,0,0-0.8,0-1.7
		S23,1.5,21.9,1.5z M5,21.9c0.2,1,1.2,1.8,2.2,1.8H17c1,0,2-0.8,2.2-1.8l3.1-15.2H2L5,21.9z M4.8,8c0.5-0.1,1.1,0.3,1.2,0.8
		l2.3,12.5c0.1,0.5-0.3,1.1-0.8,1.2c-0.1,0-0.1,0-0.2,0c-0.5,0-0.9-0.3-1-0.8L4,9.2C3.9,8.6,4.2,8.1,4.8,8z"/>
</g>
</svg>
