<?xml version="1.0" encoding="utf-8"?>
<!-- Generator: Adobe Illustrator 22.1.0, SVG Export Plug-In . SVG Version: 6.00 Build 0)  -->
<svg version="1.1" id="icons" xmlns="http://www.w3.org/2000/svg" xmlns:xlink="http://www.w3.org/1999/xlink" x="0px" y="0px"
	 viewBox="0 0 15.6 12.9" style="enable-background:new 0 0 15.6 12.9;" xml:space="preserve">
<path d="M15.6,1.5C15,1.8,14.4,2,13.7,2c0.7-0.4,1.2-1,1.4-1.8c-0.6,0.4-1.3,0.6-2,0.8c-0.6-0.6-1.4-1-2.3-1C9,0,7.6,1.5,7.6,3.3
	c0,0.3,0,0.5,0.1,0.7C5,3.9,2.7,2.6,1.1,0.6c-0.3,0.5-0.4,1-0.4,1.6c0,1.1,0.6,2.1,1.4,2.7c-0.5,0-1-0.2-1.4-0.4c0,0,0,0,0,0
	c0,1.6,1.1,2.9,2.6,3.2C2.9,7.8,2.6,7.9,2.3,7.9c-0.2,0-0.4,0-0.6-0.1c0.4,1.3,1.6,2.2,3,2.3c-1.1,0.9-2.5,1.4-4,1.4
	c-0.3,0-0.5,0-0.8,0c1.4,0.9,3.1,1.5,4.9,1.5c5.9,0,9.1-5,9.1-9.3c0-0.1,0-0.3,0-0.4C14.6,2.8,15.2,2.2,15.6,1.5z"/>
</svg>
