<?xml version="1.0" encoding="utf-8"?>
<!-- Generator: Adobe Illustrator 22.1.0, SVG Export Plug-In . SVG Version: 6.00 Build 0)  -->
<svg version="1.1" id="Warstwa_1" xmlns="http://www.w3.org/2000/svg" xmlns:xlink="http://www.w3.org/1999/xlink" x="0px" y="0px"
	 viewBox="0 0 27.2 25.7" style="enable-background:new 0 0 27.2 25.7;" xml:space="preserve">
<g>
	<path d="M14.5,20c0.5,0,0.8-0.3,0.7-0.8l-0.5-2.4L3.5,5.5c-0.6-0.6-1.7-0.6-2.3,0L0.5,6.2c-0.6,0.6-0.6,1.7,0,2.3l11.3,11.3
		L14.5,20z M26.8,6.5l-6-6.1c-0.3-0.3-0.6-0.4-1-0.4H7.7C6.9,0,6.3,0.6,6.3,1.4v4.8l9.9,9.9l0.8,3.9c0.2,1-0.4,1.7-1.4,1.6l-4.4-0.2
		l-4.8-4.8v7.8c0,0.8,0.6,1.4,1.4,1.4h18.2c0.8,0,1.4-0.6,1.4-1.4V7.5C27.2,7.1,27.1,6.8,26.8,6.5z M24.2,9.1h-3.9
		c-1.2,0-2.1-1-2.1-2.1V3.3c0-1.2,0.7-1.5,1.5-0.6l5.1,4.9C25.7,8.4,25.4,9.1,24.2,9.1z"/>
</g>
</svg>
