<?xml version="1.0" encoding="utf-8"?>
<!-- Generator: Adobe Illustrator 22.1.0, SVG Export Plug-In . SVG Version: 6.00 Build 0)  -->
<svg version="1.1" id="Warstwa_1" xmlns="http://www.w3.org/2000/svg" xmlns:xlink="http://www.w3.org/1999/xlink" x="0px" y="0px"
	 viewBox="0 0 651.7 181" style="enable-background:new 0 0 651.7 181;" xml:space="preserve">
<style type="text/css">
	.st0{fill:#4BA3A3;}
	.st1{fill:#363B42;}
	.st2{fill:#62D4D6;}
	.st3{fill:#FFFFFF;}
</style>
<g id="Layer_30">
	<path id="XMLID_2_" class="st0" d="M171,33.7c0-13.1-10.6-23.7-23.7-23.7H23.7C10.6,10,0,20.6,0,33.7v123.6
		C0,170.4,10.6,181,23.7,181h123.6c13.1,0,23.7-10.6,23.7-23.7V33.7z"/>
	<g>
		<path class="st1" d="M233,84.3c-5.1-2.8-9.2-6.6-12.1-11.6c-2.9-4.9-4.4-10.5-4.4-16.7s1.5-11.7,4.4-16.7c2.9-4.9,7-8.8,12.1-11.6
			s10.9-4.2,17.2-4.2c5.2,0,9.9,0.9,14.1,2.7c4.3,1.8,7.9,4.4,10.8,7.8l-7.6,7.1c-4.6-4.9-10.2-7.4-16.8-7.4
			c-4.3,0-8.2,0.9-11.6,2.8c-3.4,1.9-6.1,4.5-8,7.9s-2.9,7.2-2.9,11.4c0,4.3,1,8.1,2.9,11.4c1.9,3.4,4.6,6,8,7.9s7.3,2.8,11.6,2.8
			c6.7,0,12.3-2.5,16.8-7.5l7.6,7.2c-2.9,3.4-6.6,6-10.8,7.8c-4.3,1.8-9,2.7-14.2,2.7C243.9,88.5,238.1,87.1,233,84.3z"/>
		<path class="st1" d="M333.8,77.8v9.8h-47.2v-63h46v9.8h-34.3v16.4h30.4v9.6h-30.4v17.4H333.8z"/>
		<path class="st1" d="M402.8,24.6v63h-9.6l-34.7-42.7v42.7h-11.6v-63h9.6l34.7,42.7V24.6H402.8z"/>
		<path class="st1" d="M432.5,34.5h-20.9v-9.9h53.5v9.9h-20.9v53.1h-11.7V34.5z"/>
		<path class="st1" d="M515.1,87.6l-12.9-18.5c-0.5,0.1-1.3,0.1-2.4,0.1h-14.2v18.4h-11.7v-63h25.9c5.5,0,10.2,0.9,14.3,2.7
			c4.1,1.8,7.2,4.4,9.3,7.7c2.1,3.3,3.2,7.3,3.2,12s-1.2,8.8-3.5,12.2s-5.6,6-9.9,7.6l14.5,20.7L515.1,87.6L515.1,87.6z M510.9,37.7
			c-2.6-2.2-6.5-3.2-11.6-3.2h-13.7v25.1h13.7c5.1,0,9-1.1,11.6-3.3s4-5.3,4-9.3C514.8,43,513.5,39.9,510.9,37.7z"/>
		<path class="st1" d="M580.5,73H549l-6.2,14.6h-12.1l28.3-63h11.5l28.4,63h-12.2L580.5,73z M576.7,63.8l-11.9-27.5L553,63.8H576.7z
			"/>
		<path class="st1" d="M607.1,24.6h11.7v53.1h32.9v9.9h-44.6L607.1,24.6L607.1,24.6z"/>
	</g>
	<path id="XMLID_219_" class="st2" d="M171,23.7C171,10.6,160.4,0,147.3,0H23.7C10.6,0,0,10.6,0,23.7v123.6
		C0,160.4,10.6,171,23.7,171h123.6c13.1,0,23.7-10.6,23.7-23.7V23.7z"/>
	<g>
		<path class="st1" d="M221.2,106h3.6v45.8H253v3.2h-31.8V106z"/>
		<path class="st1" d="M290.1,106h3.6v49h-3.6V106z"/>
		<path class="st1" d="M341.4,153.5c-3.2-1.2-5.8-2.8-7.6-4.8l1.6-2.7c1.7,1.8,4,3.3,7,4.4c2.9,1.1,6,1.7,9.2,1.7
			c4.7,0,8.2-0.9,10.6-2.7s3.6-4.1,3.6-6.9c0-2.2-0.6-3.9-1.9-5.2s-2.8-2.3-4.7-3c-1.9-0.7-4.4-1.4-7.6-2.2
			c-3.6-0.9-6.5-1.8-8.6-2.6s-4-2.1-5.5-3.9s-2.3-4.1-2.3-7c0-2.4,0.6-4.6,1.9-6.5c1.3-2,3.2-3.6,5.8-4.7c2.6-1.2,5.8-1.8,9.7-1.8
			c2.7,0,5.4,0.4,8,1.2c2.6,0.8,4.9,1.9,6.8,3.2l-1.3,2.9c-2-1.4-4.1-2.4-6.5-3.1s-4.7-1-7-1c-4.5,0-8,0.9-10.3,2.7
			c-2.3,1.8-3.5,4.2-3.5,7.1c0,2.2,0.6,3.9,1.9,5.2c1.3,1.3,2.8,2.3,4.7,3c1.9,0.7,4.4,1.4,7.6,2.2c3.6,0.9,6.5,1.8,8.6,2.6
			s4,2.1,5.5,3.8s2.3,4,2.3,6.9c0,2.4-0.6,4.5-1.9,6.5s-3.3,3.5-5.9,4.7c-2.7,1.2-5.9,1.8-9.8,1.8
			C348.1,155.4,344.6,154.8,341.4,153.5z"/>
		<path class="st1" d="M418.1,109.2h-17.6V106h38.9v3.2h-17.6V155h-3.6L418.1,109.2L418.1,109.2z"/>
		<path class="st1" d="M476.1,106h3.6v49h-3.6V106z"/>
		<path class="st1" d="M564.7,106v49h-2.9l-33.4-42.6V155h-3.6v-49h3l33.3,42.6V106H564.7z"/>
		<path class="st1" d="M644.7,130.7h3.4V149c-2.1,2.1-4.8,3.6-7.8,4.7c-3.1,1.1-6.3,1.6-9.7,1.6c-4.9,0-9.2-1.1-13.1-3.2
			c-3.9-2.1-7-5.1-9.2-8.9c-2.2-3.8-3.3-8-3.3-12.7c0-4.7,1.1-9,3.3-12.7c2.2-3.8,5.3-6.7,9.2-8.9c3.9-2.1,8.3-3.2,13.2-3.2
			c3.6,0,6.9,0.6,9.9,1.7s5.6,2.8,7.7,5l-2.2,2.4c-2.1-2.1-4.4-3.5-6.9-4.4s-5.4-1.4-8.4-1.4c-4.2,0-8,0.9-11.4,2.8s-6,4.4-7.9,7.7
			c-1.9,3.3-2.9,7-2.9,11c0,4,1,7.7,2.9,11s4.6,5.9,7.9,7.8c3.4,1.9,7.1,2.8,11.3,2.8c5.6,0,10.2-1.5,13.9-4.5L644.7,130.7
			L644.7,130.7z"/>
	</g>
</g>
<g id="Layer_3">
	<g id="XMLID_3_">
		<path id="XMLID_13_" class="st3" d="M85.3,38.2c-33.1-5.5-60.4,21.6-61.8,53.7c-0.2,6.4,0.3,14.4,3.1,20.4
			c0.8,1.7-0.1-3.1-0.1-3.2C22.6,81.8,34.8,53.5,63,45.2c17.7-4.6,36.9,1.3,45.8,18c7.6,16,1.1,34.3-16.6,38.4
			c-2.4,0.5-7.9,1.5-3,4.1c10,5.1,21.9-3.6,26.8-11.9c4.4-7.8,5.2-16.6,3.2-25.2C114.9,52.3,101.5,41.4,85.3,38.2z"/>
		<path id="XMLID_9_" class="st3" d="M64.3,111.6c-8.8-13.7-6.8-32.8,9-40.1c3-1.3,6.1-1.6,9.1-2.6c3.6-1.2-0.8-3.5-2.3-4
			C66,60.7,53.9,75,51.3,87.4c-4,22.5,13.1,41.4,34.4,45.7c33.1,5.5,60.4-21.6,61.8-53.7c0.2-6.5-0.5-13.6-2.8-19.7
			c-1.3-3.4,0,3.8,0,4.2c3,23.8-6.2,47.6-28.2,59.1C98.5,131.6,76.3,128.7,64.3,111.6z"/>
		<path id="XMLID_8_" class="st3" d="M132.9,85.4c5.5-33.1-21.6-60.4-53.7-61.8c-6.4-0.2-14.4,0.3-20.4,3.1
			c-1.7,0.8,3.1-0.1,3.3-0.1c27.3-3.9,55.6,8.3,63.9,36.5c4.6,17.7-1.3,36.9-18,45.8c-16,7.6-34.3,1.1-38.4-16.6
			c-0.5-2.4-1.5-7.9-4.1-3c-5.1,10,3.6,21.9,11.9,26.8c7.8,4.4,16.6,5.2,25.2,3.2C118.8,115,129.7,101.6,132.9,85.4z"/>
		<path id="XMLID_7_" class="st3" d="M59.5,64.4c13.7-8.7,32.8-6.8,40.1,9c1.3,3,1.6,6.1,2.6,9.1c1.2,3.6,3.5-0.8,4-2.3
			c4.2-14.1-10.1-26.2-22.5-28.8c-22.5-4-41.4,13.1-45.7,34.4c-5.5,33.1,21.6,60.4,53.7,61.8c6.5,0.2,13.6-0.5,19.7-2.8
			c3.4-1.3-3.8,0-4.2,0c-23.8,3-47.6-6.2-59.1-28.2C39.6,98.6,42.4,76.4,59.5,64.4z"/>
	</g>
</g>
</svg>
