<svg version="1.1" id="icons" xmlns="http://www.w3.org/2000/svg" x="0" y="0" viewBox="0 0 57 58" xml:space="preserve"><style>.st1{fill:#fff}.st3{fill:#363b42}.st4{fill:#3a3a3a}</style><circle cx="22.5" cy="22.5" r="22.5" fill="#e9eaeb"/><path class="st1" d="M24 12h24l8 8v35c0 1.1-.9 2-2 2H24c-1.1 0-2-.9-2-2V14c0-1.1.9-2 2-2z"/><path d="M54 57.5H24c-1.4 0-2.5-1.1-2.5-2.5V14c0-1.4 1.1-2.5 2.5-2.5h24.2l8.3 8.3V55c0 1.4-1.1 2.5-2.5 2.5zm-30-45c-.8 0-1.5.7-1.5 1.5v41c0 .8.7 1.5 1.5 1.5h30c.8 0 1.5-.7 1.5-1.5V20.2l-7.7-7.7H24z" fill="#7b7b7b"/><path class="st1" d="M47 12v9h9z"/><path class="st3" d="M54 58H24c-1.7 0-3-1.3-3-3V14c0-1.7 1.3-3 3-3h24.4l8.6 8.6V55c0 1.7-1.3 3-3 3zM24 13c-.6 0-1 .4-1 1v41c0 .6.4 1 1 1h30c.6 0 1-.4 1-1V20.4L47.6 13H24z"/><path class="st4" d="M53 22h-7v-7h2v5h5zm-46.2.2l-1.6-1.6c-1.2-1.2-1.2-3.1 0-4.2l.2-.2c1.1-1.1 3.1-1.1 4.2 0l1.6 1.6-1.4 1.4-1.6-1.6c-.4-.4-1-.4-1.4 0l-.2.2c-.4.4-.4 1 0 1.4l1.6 1.6-1.4 1.4z"/><path fill="#62d4d6" d="M7 22l26 26 8 4-4-8-26-26z"/><path class="st4" d="M41 53c-.2 0-.3 0-.4-.1l-8-4c-.1 0-.2-.1-.3-.2l-26-26c-.4-.4-.4-1 0-1.4l4-4c.4-.4 1-.4 1.4 0l26 26c.1.1.1.2.2.3l4 8c.2.4.1.8-.2 1.2-.2.1-.4.2-.7.2zm-7.4-5.8l5.2 2.6-2.6-5.2L11 19.4 8.4 22l25.2 25.2z"/><path class="st1" d="M37 44l-4 4"/><path transform="rotate(-45.001 35 46)" class="st3" d="M32.2 45h5.7v2h-5.7z"/><path transform="rotate(-45.001 10.5 24.5)" class="st4" d="M5.6 23.5h9.9v2H5.6z"/><path transform="rotate(-45.001 9 30)" class="st4" d="M8 22.9h2V37H8z"/></svg>