<svg version="1.1" id="icons" xmlns="http://www.w3.org/2000/svg" x="0" y="0" viewBox="0 0 63.5 56.1" xml:space="preserve"><style>.st0{fill:#e9eaeb}.st1{fill:#fff}.st2{fill:#3a3a3a}.st3{fill:#363b42}</style><circle class="st0" cx="33.3" cy="27.5" r="27.5"/><path class="st1" d="M16.8 2c-5.5 0-10 2.2-10 5v25l20-11V7c0-2.8-4.5-5-10-5z"/><path class="st2" d="M16.8 13c-6.2 0-11-2.6-11-6s4.8-6 11-6 11 2.6 11 6-4.9 6-11 6zm0-10c-5.3 0-9 2.1-9 4s3.7 4 9 4 9-2.1 9-4-3.7-4-9-4z"/><path class="st2" d="M16.8 18c-6.2 0-11-2.6-11-6V7h2v5c0 1.9 3.7 4 9 4s9-2.1 9-4V7h2v5c0 3.4-4.9 6-11 6z"/><path class="st3" d="M26.8 18c-.6 0-1-.4-1-1v-5c0-.6.4-1 1-1s1 .4 1 1v5c0 .6-.5 1-1 1z"/><path class="st2" d="M13.8 22.8h-.2c-4.8-.7-7.8-3-7.8-5.8v-5c0-.6.4-1 1-1s1 .4 1 1v5c0 1.6 2.6 3.2 6.2 3.8.5.1.9.6.8 1.1-.1.5-.6.9-1 .9z"/><path class="st2" d="M9.8 26.6c-.1 0-.3 0-.4-.1C7 25.3 5.8 23.8 5.8 22v-5c0-.6.4-1 1-1s1 .4 1 1v5c0 .9.9 1.9 2.4 2.7.5.2.7.8.5 1.3-.2.4-.6.6-.9.6z"/><path class="st3" d="M6.8 29c-.6 0-1-.4-1-1V17c0-.6.4-1 1-1s1 .4 1 1v11c0 .6-.5 1-1 1z"/><path class="st0" d="M62.5 24.1L22.2 45.3 1 34.1 41.3 13z"/><path class="st3" d="M22.2 46.3c-.2 0-.3 0-.5-.1L.5 35c-.3-.1-.5-.5-.5-.9s.2-.7.5-.9l40.3-21.1c.3-.2.6-.2.9 0L63 23.2c.3.2.5.5.5.9s-.2.7-.5.9L22.7 46.2c-.2 0-.3.1-.5.1zm-19-12.2l19.1 10 38.2-20-19.1-10-38.2 20z"/><path class="st3" d="M22.2 51.2c-.2 0-.3 0-.5-.1L.5 39.9c-.5-.3-.7-.9-.4-1.4.3-.5.9-.7 1.4-.4L22.2 49 62 28.1c.5-.3 1.1-.1 1.4.4.3.5.1 1.1-.4 1.4L22.7 51.1c-.2 0-.3.1-.5.1z"/><path class="st3" d="M22.2 56.1c-.2 0-.3 0-.5-.1L.5 44.8c-.5-.2-.6-.8-.4-1.3.3-.5.9-.7 1.4-.4L22.2 54 62 33.1c.5-.3 1.1-.1 1.4.4.3.5.1 1.1-.4 1.4L22.7 56c-.2.1-.3.1-.5.1z"/><path class="st1" d="M51.2 23.4l-8.5-4.5c-1.4.7-3.1.6-4.2 0L12.3 32.7c1.4.7 1.2 1.6 0 2.2l8.5 4.5c1.2-.6 2.8-.7 4.2 0l26.2-13.7c-1.2-.7-1.4-1.6 0-2.3z"/><path class="st3" d="M25 40.5l-.5-.2c-1-.5-2.3-.5-3.3 0l-.5.2-10.6-5.6 1.7-.9c.2-.1.3-.2.3-.2-.1-.1-.2-.1-.4-.2l-1.7-.9 28.3-14.9.5.2c.8.4 2.1.6 3.3 0l.5-.2 10.6 5.6-1.7.9c-.2.1-.3.2-.4.2.1.1.2.1.4.2l1.7.9L25 40.5zm-2.1-2.7c.7 0 1.4.1 2.1.4l24.5-12.8c-.2-.3-.2-.6-.2-.9 0-.3.1-.6.2-.9L42.7 20c-1.3.5-2.9.5-4.2 0L14 32.9c.2.3.2.6.2.9s-.1.6-.2.9l6.8 3.6c.7-.3 1.4-.5 2.1-.5zm-10.6-3.9z"/><path class="st3" d="M40.8 23h2v2h-2zm-20 10h2v2h-2z"/><path class="st1" d="M35.6 27.1c2.3 1.2 2.5 3.1.3 4.3-2.1 1.1-5.8 1-8.1-.2s-2.5-3.1-.3-4.3c2.1-1.1 5.8-1 8.1.2z"/><path d="M32.2 33.2c-1.7 0-3.5-.4-4.9-1.1-1.5-.8-2.4-1.9-2.4-3.2 0-.7.3-1.9 2.1-2.8 2.4-1.3 6.4-1.2 9.1.2 1.5.8 2.4 1.9 2.4 3.2 0 .7-.3 1.9-2.1 2.8-1.1.6-2.6.9-4.2.9zm-1-6.1c-1.2 0-2.4.2-3.3.7-.6.3-1 .7-1 1.1 0 .3.3.9 1.3 1.4 2 1.1 5.3 1.2 7.2.2.6-.3 1-.7 1-1.1 0-.3-.3-.9-1.3-1.4-1-.6-2.5-.9-3.9-.9z" fill="#2a5082"/><path fill="#62d4d6" d="M36.8 37.4L14.8 25l10-5 23 12v12.1l-11 5.9z"/><path class="st3" d="M36.8 51c-.2 0-.4 0-.5-.1-.3-.2-.5-.5-.5-.9V38L14.3 25.9c-.3-.2-.5-.5-.5-.9s.2-.7.6-.9l10-5c.3-.1.6-.1.9 0l23 12c.3.2.5.5.5.9v12.1c0 .4-.2.7-.5.9l-11 5.9c-.2.1-.4.1-.5.1zM16.9 25.1l20.4 11.5c.3.2.5.5.5.9v10.9l9-4.8v-11l-22-11.5-7.9 4z"/></svg>