<svg version="1.1" id="icons" xmlns="http://www.w3.org/2000/svg" x="0" y="0" viewBox="0 0 62.1 54.6" xml:space="preserve"><style>.st0{fill:#bcc0c4}.st2{fill:#fff}.st3{fill:#363a42}</style><path class="st0" d="M4.3 37.8c-5.4-9-5.7-20.3-.7-29.6l1.8 1C.7 17.8.9 28.4 6 36.8l-1.7 1z"/><circle cx="30.2" cy="22.6" r="21" fill="#e9eaeb"/><path class="st0" d="M56.5 40.5l-1.6-1.2c4.3-5.8 6-12.9 5-20S55 5.9 49.2 1.6L50.4 0c6.2 4.6 10.3 11.3 11.4 19 1.2 7.6-.7 15.2-5.3 21.5z"/><path class="st2" d="M17.2 13.6h6v11h-6z"/><path class="st3" d="M24.2 25.6h-8v-13h8v13zm-6-2h4v-9h-4v9z"/><path class="st2" d="M49.2 53.6h-34V32.3c6-6.8 9.6-10.7 16.4-17.7h.2c6.8 7 10.5 10.9 17.5 17.7v21.3z"/><path class="st3" d="M50.2 54.6h-36V31.9l.3-.3C20.4 25 24 21 30.9 13.9l.3-.3h1l3 3.1c5.1 5.3 8.7 9.1 14.7 14.8l.3.3v22.8zm-34-2h32V32.7c-5.8-5.6-9.5-9.4-14.5-14.6l-2-2.1c-6.4 6.6-9.9 10.5-15.4 16.7v19.9z"/><path fill="#60d2d4" d="M32.2 11.6l-21 21 3 3 18-18 18 18 3-3z"/><path class="st3" d="M50.2 37l-18-18-18 18-4.4-4.4 22.4-22.4 22.4 22.4-4.4 4.4zm-18-20.8l18 18 1.6-1.6L32.2 13 12.7 32.6l1.6 1.6 17.9-18zm-23 36.4h46v2h-46zm-4 0h2v2h-2zm-4 0h2v2h-2zm56 0h4v2h-4z"/></svg>