<svg version="1.1" id="icons" xmlns="http://www.w3.org/2000/svg" x="0" y="0" viewBox="0 0 60 62.3" xml:space="preserve"><style>.st1{fill:#fff}.st3{fill:#363b42}.st4{fill:#bcc0c4}</style><circle cx="24" cy="24.3" r="24" fill="#e9eaeb"/><path class="st1" d="M17 21.3h42v32H17z"/><path class="st1" d="M7 30.3h28v31H7z"/><path fill="#3a3a3a" d="M36 62.3H6v-33h8v2H8v29h26v-4h2z"/><path class="st3" d="M36 61.3h-2.3L16 56.1v-2.8h2v1.3l16 4.7v-3h2z"/><path class="st4" d="M53.5 54.2l-9.9-9.9h-14l-6-6 5.4-5.4 2.4 2.4h15l13.3 13.3-1.4 1.4-12.7-12.7h-15L29 35.8l-2.6 2.5 4 4h14l10.5 10.5z"/><path class="st4" d="M46.3 54l-4.7-4.7h-14L17.3 39l1.4-1.4 9.7 9.7h14l5.3 5.3zM21 35.8L17.3 32l1.4-1.4 2.3 2.3 2.6-2.6-6.3-6.3 1.4-1.4 7.7 7.7zM58.3 43L47.6 32.3h-15L22.3 22l1.4-1.4 9.7 9.7h15l11.3 11.3z"/><path transform="rotate(-45.001 54 26.342)" class="st4" d="M53 19.3h2v14.1h-2z"/><path class="st3" d="M60 54.3H16v-34h44v34zm-42-2h40v-30H18v30z"/><path d="M43.8 1c-7.4 0-13.3 6-13.3 13.3 0 11.5 11.4 13.1 12.3 24.7 0 .5.5 1 1 1s1-.4 1-1c1-11.7 12.3-13.2 12.3-24.7C57.1 7 51.2 1 43.8 1z" fill="#62d4d6"/><path class="st3" d="M43.8 41c-1.1 0-1.9-.8-2-1.9-.4-5.4-3.2-8.4-6.1-11.7-3.1-3.4-6.2-6.9-6.2-13.2C29.5 6.4 35.9 0 43.8 0s14.3 6.4 14.3 14.3c0 6.2-3.2 9.8-6.2 13.2-2.9 3.2-5.6 6.3-6.1 11.7-.1 1-.9 1.8-2 1.8zm0-39C37 2 31.5 7.5 31.5 14.3c0 5.5 2.8 8.6 5.7 11.8 3 3.3 6.1 6.8 6.6 12.8.5-6.1 3.6-9.5 6.6-12.8 2.9-3.3 5.7-6.3 5.7-11.8C56.1 7.5 50.6 2 43.8 2z"/><path class="st1" d="M48.1 14.3c0 2.4-1.9 4.3-4.3 4.3s-4.3-1.9-4.3-4.3 1.9-4.3 4.3-4.3 4.3 2 4.3 4.3z"/><path class="st3" d="M43.8 19.6c-2.9 0-5.3-2.4-5.3-5.3S40.9 9 43.8 9s5.3 2.4 5.3 5.3-2.4 5.3-5.3 5.3zm0-8.6c-1.8 0-3.3 1.5-3.3 3.3 0 1.8 1.5 3.3 3.3 3.3 1.8 0 3.3-1.5 3.3-3.3 0-1.8-1.5-3.3-3.3-3.3z"/></svg>