<svg version="1.1" id="icons" xmlns="http://www.w3.org/2000/svg" x="0" y="0" viewBox="0 0 64 58.4" xml:space="preserve"><style>.st0{fill:#363b42}.st1{fill:#e9eaeb}</style><path class="st0" d="M44 58.4H16v-41h28v41zm-26-2h24v-37H18v37z"/><path class="st1" d="M20 13.4h20v5H20z"/><path class="st0" d="M41 19.4H19v-7h22v7zm-20-2h18v-3H21v3z"/><path class="st1" d="M28 49.4h6v8h-6z"/><path class="st0" d="M35 58.4h-8v-10h8v10zm-6-2h4v-6h-4v6zm-1-24h-2v-4h-3v4h-2v-6h7zm0 8h-2v-4h-3v4h-2v-6h7zm-10 18H6v-27h12v27zm-10-2h8v-23H8v23z"/><path class="st1" d="M10 27.4h7v5h-7z"/><path class="st0" d="M18 33.4H9v-7h9v7zm-7-2h5v-3h-5v3z"/><path d="M43.1 25.4c-6 0-10.9 4.9-10.9 10.9 0 9.4 9.3 10.7 10.1 20.3 0 .4.4.8.8.8s.8-.3.8-.8C44.7 47.1 54 45.8 54 36.3c0-6-4.9-10.9-10.9-10.9z" fill="#62d4d6"/><path class="st0" d="M43.1 58.4c-1 0-1.7-.7-1.8-1.7-.4-4.4-2.6-6.8-4.9-9.5-2.5-2.8-5.2-5.7-5.2-10.9 0-6.6 5.4-11.9 11.9-11.9S55 29.8 55 36.3c0 5.2-2.6 8.1-5.2 10.9-2.4 2.6-4.6 5.1-4.9 9.5-.1 1-.9 1.7-1.8 1.7zm0-32c-5.5 0-9.9 4.5-9.9 9.9 0 4.4 2.3 6.9 4.6 9.6 2.2 2.5 4.6 5.1 5.3 9.3.7-4.2 3-6.8 5.3-9.3 2.4-2.7 4.6-5.2 4.6-9.6 0-5.4-4.5-9.9-9.9-9.9z"/><circle cx="43" cy="36.4" r="4" fill="#fff"/><path class="st0" d="M43 41.4c-2.8 0-5-2.2-5-5s2.2-5 5-5 5 2.2 5 5-2.2 5-5 5zm0-8c-1.7 0-3 1.3-3 3s1.3 3 3 3 3-1.3 3-3-1.3-3-3-3zm-39 23h50v2H4z"/><path d="M36 7.4h-7.5l-.3-.5c-.4-.7-1.3-1.5-2.2-1.5-.3 0-.6.1-.9.2l-1 .4-.4-1c-.7-1.8-2.4-3-4.2-3C17 2 15 4.9 15 6.4v1H6v-2h7.2C13.8 3 16.4 0 19.6 0c2.4 0 4.6 1.4 5.7 3.5 1.9-.3 3.5.7 4.4 2H36v1.9zm-32 6h7v2H4zm60-1h-3.7l-.2-.7c-.5-1.3-1.3-1.8-2.8-1.6l-.7.1-.3-.6c-.6-1-1.7-1.6-2.9-1.6s-3.3.4-3.3 3.4v1H45v-2h3.2c.4-2.7 2.4-4.4 5.2-4.4 1.7 0 3.3.8 4.2 2 2.2-.1 3.4 1.1 4 2.3H64v2.1zm-51 1h2v2h-2zm25-8h2v2h-2zm4 0h2v2h-2z" fill="#bcc0c4"/><path class="st0" d="M0 56.4h2v2H0zm56 0h4v2h-4zm6 0h2v2h-2z"/></svg>