<svg version="1.1" id="icons" xmlns="http://www.w3.org/2000/svg" x="0" y="0" viewBox="0 0 52 60" xml:space="preserve"><style>.st1{fill:#3a3a3a}.st2{fill:#fff}</style><circle cx="26" cy="30" r="25" fill="#e9eaeb"/><path class="st1" d="M25 9h2v42h-2z"/><path transform="rotate(-29.991 26.003 30)" class="st1" d="M5 29h42v2H5z"/><path transform="rotate(-60 26 30.001)" class="st1" d="M25 9h2v42h-2z"/><ellipse transform="rotate(-40.141 25.998 29.998)" class="st2" cx="26" cy="30" rx="16" ry="16"/><path class="st1" d="M26 47c-9.4 0-17-7.6-17-17s7.6-17 17-17 17 7.6 17 17-7.6 17-17 17zm0-32c-8.3 0-15 6.7-15 15s6.7 15 15 15 15-6.7 15-15-6.7-15-15-15z"/><path transform="rotate(-29.744 15.501 11)" class="st1" d="M11.5 10h8.1v2h-8.1z"/><path class="st1" d="M4 24h2v12H4z"/><path transform="rotate(-60.256 15.5 49.002)" class="st1" d="M14.5 45h2v8.1h-2z"/><path transform="rotate(-29.744 36.503 49.004)" class="st1" d="M32.5 48h8.1v2h-8.1z"/><path class="st1" d="M46 24h2v12h-2z"/><path transform="rotate(-60.256 36.502 11)" class="st1" d="M35.5 7h2v8.1h-2z"/><path d="M26 33c-3 0-9 .9-9 4v2c2.4 2 5.6 3.3 9 3.3 3.4 0 6.6-1.2 9-3.3v-2c0-3.1-6-4-9-4zm0-4c2.2 0 4-1.7 4-3.9v-2.3c0-2.1-1.8-3.9-4-3.9s-4 1.7-4 3.9v2.3c0 2.2 1.8 3.9 4 3.9z" fill="#62d4d6"/><path class="st1" d="M26 30c-2.8 0-5-2.2-5-4.9v-2.3c0-2.7 2.2-4.9 5-4.9s5 2.2 5 4.9v2.3c0 2.7-2.2 4.9-5 4.9zm0-10c-1.7 0-3 1.3-3 2.9v2.3c0 1.6 1.3 2.9 3 2.9s3-1.3 3-2.9v-2.3c0-1.6-1.3-2.9-3-2.9zm10 19h-2v-2c0-2-4.6-3-8-3s-8 1-8 3v2h-2v-2c0-4 6.5-5 10-5s10 1 10 5v2z"/><circle class="st2" cx="26" cy="5" r="4"/><path class="st1" d="M26 10c-2.8 0-5-2.2-5-5s2.2-5 5-5 5 2.2 5 5-2.2 5-5 5zm0-8c-1.7 0-3 1.3-3 3s1.3 3 3 3 3-1.3 3-3-1.3-3-3-3z"/><circle class="st2" cx="47" cy="17" r="4"/><path class="st1" d="M47 22c-2.8 0-5-2.2-5-5s2.2-5 5-5 5 2.2 5 5-2.2 5-5 5zm0-8c-1.7 0-3 1.3-3 3s1.3 3 3 3 3-1.3 3-3-1.3-3-3-3z"/><circle class="st2" cx="47" cy="43" r="4"/><path class="st1" d="M47 48c-2.8 0-5-2.2-5-5s2.2-5 5-5 5 2.2 5 5-2.2 5-5 5zm0-8c-1.7 0-3 1.3-3 3s1.3 3 3 3 3-1.3 3-3-1.3-3-3-3z"/><circle class="st2" cx="5" cy="43" r="4"/><path class="st1" d="M5 48c-2.8 0-5-2.2-5-5s2.2-5 5-5 5 2.2 5 5-2.2 5-5 5zm0-8c-1.7 0-3 1.3-3 3s1.3 3 3 3 3-1.3 3-3-1.3-3-3-3z"/><circle class="st2" cx="5" cy="17" r="4"/><path class="st1" d="M5 22c-2.8 0-5-2.2-5-5s2.2-5 5-5 5 2.2 5 5-2.2 5-5 5zm0-8c-1.7 0-3 1.3-3 3s1.3 3 3 3 3-1.3 3-3-1.3-3-3-3z"/><path class="st2" d="M26 59c-2.2 0-4-1.8-4-4s1.8-4 4-4 4 1.8 4 4-1.8 4-4 4"/><path class="st1" d="M26 60c-2.8 0-5-2.2-5-5s2.2-5 5-5 5 2.2 5 5-2.2 5-5 5zm0-8c-1.7 0-3 1.3-3 3s1.3 3 3 3 3-1.3 3-3-1.3-3-3-3z"/></svg>