<svg version="1.1" id="icons" xmlns="http://www.w3.org/2000/svg" x="0" y="0" viewBox="0 0 49 62" xml:space="preserve"><style>.st1{fill:#61d3d5}.st2{fill:#363a42}</style><circle cx="24.5" cy="32.5" r="24.5" fill="#e9eaeb"/><path class="st1" d="M42 18v-2c0-7.2-7.6-13-17-13S8 8.8 8 16v2H6v5h38v-5h-2z"/><path class="st2" d="M45 24H5v-7h2v-1C7 8.3 15.1 2 25 2s18 6.3 18 14v1h2v7zM7 22h36v-3h-2v-3c0-6.6-7.2-12-16-12S9 9.4 9 16v3H7v3zm7 21h2v12h-2zm20 0h2v12h-2z"/><path d="M11 30v5.9c0 1.4.5 2.7 1.3 3.7l4.9 6.1c1.1 1.4 2.9 2.3 4.7 2.3h6.2c1.8 0 3.5-.8 4.7-2.3l4.9-6.1c.9-1.1 1.3-2.4 1.3-3.7V30c0-3.3-2.7-6-6-6H17c-3.3 0-6 2.7-6 6z" fill="#fff"/><path class="st2" d="M28.1 49h-6.2c-2.1 0-4.1-1-5.5-2.6l-4.9-6.1c-1-1.2-1.5-2.8-1.5-4.4V30c0-3.9 3.1-7 7-7h16c3.9 0 7 3.1 7 7v5.9c0 1.6-.5 3.1-1.5 4.4l-4.9 6.1C32.2 48 30.3 49 28.1 49zM17 25c-2.8 0-5 2.2-5 5v5.9c0 1.1.4 2.2 1.1 3.1l4.9 6.1c1 1.2 2.4 1.9 3.9 1.9h6.2c1.5 0 3-.7 3.9-1.9l4.9-6.1c.7-.9 1.1-2 1.1-3.1V30c0-2.8-2.2-5-5-5H17z"/><path class="st1" d="M9 21v3.1c0 2.7 6.6 4.9 16 4.9s16-2.2 16-4.9V21H9z"/><path class="st2" d="M25 30c-8.5 0-17-1.8-17-5.9V21h2v3.1c0 1.6 5.3 3.9 15 3.9s15-2.3 15-3.9V21h2v3.1c0 4.1-8.5 5.9-17 5.9zm19 28h-2v-4c0-1.4-.5-1.9-2.1-3l-4.5-3.2 1.2-1.6 4.5 3.2c1.6 1.1 2.9 2.1 2.9 4.6v4z"/><path class="st2" d="M28 62h-2v-2.6l12.5-7.3 1 1.8L28 60.6zm-4 0h-2v-1.4l-11.5-6.7 1-1.8L24 59.4z"/><path class="st2" d="M8 57H6v-3c0-2.5 1.4-3.5 2.9-4.6l4.5-3.2 1.2 1.6-4.5 3.2C8.5 52.1 8 52.6 8 54v3z"/><path class="st1" d="M29 3V1h-8v2h-4v7h4v4h8v-4h4V3z"/><path class="st2" d="M34 10h-2V4h-3V2h5zm-16 0h-2V2h5v2h-3z"/><path class="st2" d="M30 14h-2V2h-6v12h-2V0h10zm.4 11H19.6c-2.6 0-5-.8-7.2-2.2l1.1-1.7c1.8 1.2 3.9 1.8 6.1 1.8h10.8c2.2 0 4.3-.6 6.1-1.8l1.1 1.7C35.4 24.2 33 25 30.4 25z"/></svg>